<?xml version="1.0" standalone="no"?>
<!DOCTYPE svg PUBLIC "-//W3C//DTD SVG 20010904//EN"
 "http://www.w3.org/TR/2001/REC-SVG-20010904/DTD/svg10.dtd">
<svg version="1.0" xmlns="http://www.w3.org/2000/svg"
 width="512.000000pt" height="512.000000pt" viewBox="0 0 512.000000 512.000000"
 preserveAspectRatio="xMidYMid meet">
<metadata>
Created by potrace 1.11, written by Peter Selinger 2001-2013
</metadata>
<g transform="translate(0.000000,512.000000) scale(0.100000,-0.100000)"
fill="#000000" stroke="none">
<path d="M55 4286 c-17 -7 -36 -25 -43 -40 -15 -35 -18 -1680 -2 -1721 21 -55
27 -56 661 -53 l581 3 24 28 c31 36 31 78 0 114 l-24 28 -541 3 -541 3 0 734
0 735 740 0 740 0 0 -1616 c0 -1138 3 -1621 11 -1636 27 -50 -41 -48 1722 -48
1177 0 1653 3 1676 11 64 22 61 -16 61 903 0 529 -4 844 -10 861 -21 56 -10
55 -860 55 l-780 0 0 791 c0 547 -3 797 -11 811 -27 50 42 48 -1726 48 -1341
-1 -1654 -3 -1678 -14z m3245 -901 l0 -735 -740 0 -740 0 0 735 0 735 740 0
740 0 0 -735z m-10 -1650 l0 -735 -735 0 -735 0 0 735 0 735 735 0 735 0 0
-735z m1660 0 l0 -735 -740 0 -740 0 0 735 0 735 740 0 740 0 0 -735z"/>
<path d="M2212 3763 c-7 -3 -19 -18 -27 -33 -12 -24 -15 -86 -15 -345 0 -358
2 -366 68 -384 49 -14 595 -14 644 0 66 18 68 26 68 384 0 331 -4 363 -45 379
-20 7 -674 7 -693 -1z"/>
</g>
</svg>
